<svg width="20" height="14" viewBox="0 0 20 14" fill="none" xmlns="http://www.w3.org/2000/svg">
<path id="Combined shape 1076" fill-rule="evenodd" clip-rule="evenodd" d="M18.0533 5.42619V5.40384V2.05879C18.0533 0.5521 17.0265 -0.000732422 16.064 -0.000732422H3.87152C2.90894 -0.000732422 1.88222 0.530778 1.88222 2.05879V5.40384V5.42619C0.919638 5.53666 -0.00012207 6.20151 -0.00012207 7.72952V10.3432C-0.00012207 10.7863 0.342158 11.1411 0.769858 11.1411H1.02658V13.2014C1.02658 13.644 1.36878 13.9988 1.79666 13.9988H2.5239C2.95176 13.9988 3.29398 13.644 3.29398 13.2014V11.1193H16.7058V13.2014C16.7058 13.644 17.048 13.9988 17.4759 13.9988H18.2031C18.6309 13.9988 18.9732 13.644 18.9732 13.2014V11.1193H19.2298C19.6576 11.1193 19.9998 10.7647 19.9998 10.3216V7.72952C19.9357 6.20151 19.0159 5.53666 18.0533 5.42619ZM2.60948 2.05879H2.65222C2.65222 1.01812 3.31542 0.796148 3.87152 0.796148H16.064C16.6202 0.796148 17.2833 1.01812 17.2833 2.05879V5.40384H16.7058V3.49844C16.7058 3.05607 16.3635 2.7013 15.9357 2.7013H11.2299C10.802 2.7013 10.4598 3.05607 10.4598 3.49844V5.40384H9.56142V3.49844C9.56142 3.05607 9.21912 2.7013 8.79134 2.7013H4.0855C3.65764 2.7013 3.31542 3.05607 3.31542 3.49844V5.40384H2.60948V2.05879ZM15.9357 3.49844V5.40384H11.2299V3.49844H15.9357ZM8.83408 3.49844V5.40384H4.12824V3.49844H8.83408ZM2.50252 13.2014H1.77528V11.1193H2.50252V13.2014ZM18.1604 13.2014H17.433V11.1193H18.1604V13.2014ZM19.1656 10.3432H18.1604H17.433H2.50252H1.77528H0.748498V9.16994H19.1656V10.3432ZM19.1656 8.37253H0.748498V7.72952C0.748498 6.40085 1.68972 6.20151 2.22444 6.20151H2.63092H4.10678H8.81262H11.2299H15.9357H17.2833H17.6898C18.2458 6.20151 19.1656 6.40085 19.1656 7.72952V8.37253Z" fill="black"/>
</svg>
