<svg width="45" height="64" viewBox="0 0 45 64" fill="none" xmlns="http://www.w3.org/2000/svg">
<path fill-rule="evenodd" clip-rule="evenodd" d="M12.5008 62.9268C12.6074 63.044 12.714 63.1612 12.8125 63.2825H13.5449C14.4979 62.6864 14.635 62.189 14.1223 61.1513C13.7341 60.3656 13.3448 59.5805 12.9555 58.7954C11.9272 56.7215 10.8989 54.6477 9.89116 52.5636C9.6878 52.1433 9.55631 51.6283 9.58363 51.1685C9.63763 50.2604 10.3305 49.5515 11.1663 49.3725C12.0519 49.183 12.9122 49.5373 13.4176 50.3557C14.2125 51.6433 14.9984 52.9364 15.7844 54.2295C16.1814 54.8828 16.5785 55.536 16.9767 56.1886C17.0084 56.2404 17.0382 56.2984 17.0682 56.3567C17.1482 56.5125 17.23 56.6717 17.3555 56.7287C17.7368 56.9023 18.1684 57.0841 18.5693 57.0638C19.0442 57.0395 19.3475 56.6467 19.4242 56.1573C19.468 55.8777 19.4681 55.5896 19.4682 55.3056C19.4687 53.0976 19.4688 50.8896 19.4689 48.6817C19.4692 41.9109 19.4695 35.1403 19.4817 28.3697C19.4826 27.8775 19.5606 27.3415 19.7672 26.904C20.129 26.1375 21.0035 25.8133 21.8399 26.0028C22.6442 26.1854 23.2558 26.904 23.3098 27.7415C23.3206 27.9076 23.3191 28.0745 23.3177 28.2414C23.3172 28.2988 23.3167 28.3562 23.3167 28.4135C23.3169 34.2995 23.3169 40.1857 23.3169 46.0718L23.3169 50.4629C23.3169 50.5123 23.3165 50.5617 23.3162 50.6111C23.3155 50.7246 23.3148 50.838 23.3179 50.9515C23.3409 51.7882 23.8278 52.3113 24.5684 52.2978C25.2857 52.2848 25.7527 51.7756 25.7562 50.9604C25.76 50.0984 25.759 49.2365 25.7581 48.3746C25.7569 47.2412 25.7557 46.1079 25.7652 44.9746C25.7735 43.978 26.4396 43.2143 27.3886 43.0406C28.2239 42.8876 29.1343 43.3778 29.45 44.2109C29.5758 44.5428 29.6179 44.9239 29.6207 45.2834C29.629 46.3167 29.6291 47.3502 29.6291 48.3837C29.6291 49.4268 29.6292 50.47 29.6377 51.5131C29.6436 52.2358 30.1395 52.7341 30.7983 52.7592C31.4413 52.784 31.9737 52.2974 32.0562 51.5954C32.0745 51.4392 32.073 51.2805 32.0716 51.1222C32.0712 51.0766 32.0708 51.031 32.0709 50.9855C32.0714 50.3622 32.0699 49.7388 32.0684 49.1156C32.0651 47.7231 32.0619 46.3308 32.0809 44.9385C32.0997 43.5576 33.4389 42.6587 34.6816 43.149C35.4365 43.4468 35.8969 44.1298 35.9008 45.0168C35.9071 46.415 35.9062 47.813 35.9054 49.2109C35.9051 49.8489 35.9047 50.4868 35.905 51.1247C35.905 51.169 35.9045 51.2133 35.904 51.2577C35.9023 51.3971 35.9007 51.5365 35.916 51.6741C35.9948 52.3831 36.511 52.8538 37.1734 52.8327C37.8362 52.8112 38.3299 52.3141 38.3396 51.5954C38.3483 50.9424 38.3468 50.2891 38.3454 49.6359C38.3438 48.9249 38.3422 48.2139 38.3537 47.5031C38.3696 46.5198 39.0297 45.7237 39.901 45.567C40.8097 45.4031 41.7144 45.8539 42.0382 46.7004C42.1718 47.0498 42.2114 47.4535 42.2123 47.8329C42.2237 52.4342 42.2323 57.0354 42.2071 61.6366C42.203 62.3877 42.4041 62.9421 43.0869 63.2825H43.8194C44.3199 62.9616 44.6666 62.5602 44.6654 61.9126C44.6626 60.1854 44.6639 58.4582 44.6652 56.7309C44.6676 53.6113 44.6699 50.4917 44.6477 47.3724C44.6328 45.2878 43.1599 43.5754 41.1407 43.1684C40.1152 42.9614 39.1241 43.1327 38.1915 43.6034C36.9364 40.4334 33.3133 39.5776 30.818 41.8752C30.6812 41.7577 30.5439 41.6395 30.3945 41.5109C30.3178 41.4449 30.238 41.3762 30.1534 41.3034C30.2366 41.2608 30.3141 41.2206 30.388 41.1822C30.5296 41.1087 30.6581 41.042 30.7883 40.9788C42.2737 35.3996 46.2262 20.6939 39.0707 10.1149C38.7969 9.70992 38.7799 9.42749 38.9973 8.98602C39.9686 7.01226 39.3645 4.61405 37.6157 3.29361C35.865 1.97156 33.4034 2.06609 31.7617 3.51844C30.0829 5.00362 29.6936 7.42781 30.825 9.35204C31.9418 11.2511 34.2315 12.1187 36.3122 11.3721C36.7906 11.2008 36.9786 11.3278 37.2204 11.7088C39.0373 14.5713 40.0294 17.6833 40.1957 21.0757C40.5612 28.5292 36.4473 35.5558 29.7355 38.7839C28.8902 39.1905 28.0032 39.5104 27.085 39.8417C26.6498 39.9987 26.2075 40.1582 25.7593 40.3307C25.7593 39.739 25.7607 39.1626 25.762 38.5971C25.7656 37.103 25.7691 35.686 25.7461 34.2695C25.7384 33.7874 25.8856 33.5728 26.3288 33.3828C31.398 31.2123 34.4114 26.0405 33.832 20.5554C33.0993 13.621 26.6693 8.57821 19.7897 9.54359C14.1325 10.3369 9.85237 14.6963 9.06338 20.4682C8.33798 25.7759 11.4326 31.1591 16.4903 33.3427C16.9201 33.5281 17.0371 33.757 17.0358 34.205C17.0234 38.5775 17.0243 42.9502 17.0252 47.3228C17.0254 48.4488 17.0256 49.5747 17.0256 50.7006V51.2894C16.5492 50.7105 16.16 50.1054 15.7745 49.5059C15.6453 49.305 15.5165 49.1047 15.3849 48.9063C14.3262 47.3091 12.4601 46.5604 10.6631 46.9821C7.73782 47.6678 6.27905 50.7417 7.61038 53.4901C9.01055 56.3809 10.4409 59.2575 11.8901 62.124C12.0393 62.4191 12.2701 62.6729 12.5008 62.9268ZM31.2522 19.821C32.3672 25.039 29.1085 29.5331 25.7593 30.8998C25.7593 30.6314 25.7631 30.3682 25.7669 30.109C25.7755 29.5253 25.7838 28.9613 25.7471 28.4002C25.7217 28.0118 25.6593 27.626 25.5968 27.2401C25.5431 26.9078 25.4893 26.5755 25.4591 26.2414C25.4396 26.0251 25.5439 25.7447 25.6871 25.5742C28.4182 22.3239 26.7896 17.3851 22.6724 16.4619C20.3493 15.9408 17.9728 16.935 16.7125 18.955C15.441 20.9933 15.5921 23.5595 17.1335 25.4493C17.3999 25.7759 17.3847 26.0174 17.3132 26.4142C17.1689 27.2156 17.1155 28.0342 17.0622 28.8509C17.0522 29.0045 17.0422 29.1579 17.0316 29.3111C17.0085 29.6441 17.0144 29.9791 17.0203 30.3162C17.023 30.4692 17.0257 30.6226 17.0257 30.7765C14.1728 30.322 11.3027 25.4841 11.4503 21.4425C11.6274 16.5877 15.5998 12.4101 20.3294 11.9361C25.5715 11.411 30.2033 14.9122 31.2522 19.821ZM23.388 23.9596C21.9776 23.3071 20.5973 23.3546 19.2017 24.0728C18.0098 22.8409 18.0129 20.9629 19.1709 19.7427C20.3087 18.544 22.2222 18.4405 23.4792 19.5097C24.7508 20.5916 24.9811 22.526 23.9607 23.7876C23.8534 23.9202 23.5281 24.0242 23.388 23.9596ZM34.8353 4.80356C36.0614 4.81207 37.0166 5.79249 37.0046 7.02973C36.9925 8.26333 36.0176 9.2072 34.7764 9.18608C33.5808 9.1658 32.6189 8.19229 32.6182 7.0017C32.6175 5.79652 33.6279 4.79504 34.8353 4.80356ZM21.489 1.93629C21.4945 1.3162 21.0939 0.995237 20.6252 0.717285H19.5266C19.2296 0.77021 18.9315 0.818747 18.6335 0.867283C17.9902 0.972053 17.3469 1.07682 16.7139 1.2257C2.17379 4.64407 -4.36394 21.3025 3.78412 33.647C4.06978 34.08 4.13885 34.3851 3.89459 34.8895C2.73098 37.2914 3.90224 40.181 6.37981 41.1553C8.87011 42.1345 11.6455 40.8238 12.4819 38.2734C13.3163 35.7295 11.8445 33.027 9.25513 32.3469C8.15524 32.058 7.08775 32.2069 6.03983 32.6293C5.99766 32.5681 5.95783 32.511 5.9198 32.4564C5.84334 32.3467 5.77413 32.2475 5.70778 32.1464C0.943629 24.8861 1.89029 15.0672 7.96642 8.85777C11.3205 5.43012 15.4017 3.54602 20.1787 3.16861C21.0091 3.10289 21.4826 2.65047 21.489 1.93629ZM8.07361 34.6452C9.30562 34.6416 10.2686 35.6074 10.2645 36.8426C10.2605 38.0725 9.27799 39.0444 8.05462 39.029C6.86621 39.014 5.89151 38.0405 5.87684 36.8539C5.8619 35.6463 6.85393 34.6493 8.07361 34.6452ZM26.9833 2.39031C26.9909 1.71473 26.4797 1.18557 25.8052 1.17137C25.1348 1.15716 24.5832 1.66845 24.5547 2.33066C24.5259 3.00061 25.0976 3.59025 25.7759 3.59025C26.4392 3.59025 26.9757 3.05706 26.9833 2.39031Z" fill="#858E97"/>
</svg>
