<svg width="19" height="19" viewBox="0 0 19 19" fill="none" xmlns="http://www.w3.org/2000/svg">
<path fill-rule="evenodd" clip-rule="evenodd" d="M9.35941 18.5057H9.64033C9.94923 18.3636 10.0685 18.1149 10.023 17.7679H10.2485L12.5489 17.768C14.0824 17.7681 15.6159 17.7682 17.1495 17.7679C17.9862 17.7679 18.4911 17.2611 18.4911 16.4215C18.4913 11.8134 18.4914 7.20568 18.4911 2.59753C18.4911 1.75957 17.9856 1.2556 17.1458 1.25518H10.2624H10.0292C10.0357 1.01496 10.0342 0.769046 9.80933 0.627838C9.71104 0.566164 9.58154 0.523148 9.46686 0.524763C9.14946 0.528411 9.00544 0.74389 8.96106 1.2556C8.86721 1.2556 8.7731 1.25496 8.67881 1.25432H8.6788H8.6788H8.67879H8.67878H8.67877H8.67876C8.47197 1.25292 8.26437 1.25152 8.05692 1.25681C7.65669 1.26736 7.41335 1.67193 7.59395 2.01968C7.69497 2.21407 7.86191 2.3074 8.07915 2.30862C8.29766 2.30983 8.51616 2.30968 8.7388 2.30953H8.73881H8.73881H8.73882H8.73883H8.73884H8.73885L8.96313 2.30943V11.0785H6.58587L6.63383 11.0254C6.66628 10.9897 6.69632 10.9565 6.72525 10.9227C6.91709 10.6963 6.9098 10.3903 6.70853 10.1915C6.507 9.99262 6.19165 9.98046 5.97939 10.1846C5.61263 10.538 5.25214 10.8979 4.89981 11.2656C4.70137 11.4725 4.70498 11.7724 4.90539 11.9806C5.25463 12.343 5.61075 12.6992 5.97277 13.049C6.19131 13.26 6.51308 13.2483 6.71488 13.0413C6.91236 12.8388 6.91443 12.5349 6.71934 12.3101C6.69229 12.2789 6.66439 12.2485 6.63174 12.2131L6.57935 12.1559H8.96089V16.7141C8.87397 16.7141 8.78718 16.7138 8.70049 16.7134C8.4839 16.7126 8.26792 16.7118 8.05202 16.7161C7.84938 16.7198 7.69446 16.8168 7.59739 16.9961C7.49944 17.1775 7.51103 17.3585 7.62235 17.5281C7.72974 17.6921 7.88835 17.7683 8.08404 17.7679C8.27666 17.7677 8.46931 17.7677 8.66773 17.7678L8.97721 17.7679C8.92999 18.1157 9.05041 18.3636 9.35941 18.5057ZM12.3624 8.0067C12.3829 7.98551 12.4058 7.96175 12.4323 7.93366H10.0388V6.87739H12.4303C12.4055 6.8502 12.3836 6.82661 12.3638 6.80523L12.3638 6.8052L12.3637 6.80518C12.327 6.76563 12.2974 6.73365 12.2692 6.70047C12.0849 6.48134 12.0915 6.18104 12.2839 5.98263C12.4804 5.78013 12.7997 5.75943 13.0118 5.96194C13.3839 6.31739 13.7481 6.68179 14.1033 7.0543C14.2971 7.2572 14.2962 7.551 14.1016 7.7547C13.7461 8.12721 13.3822 8.49201 13.0096 8.84667C12.7973 9.04917 12.4771 9.02603 12.2819 8.82233C12.0906 8.62309 12.0855 8.3228 12.2711 8.10489C12.2977 8.07375 12.3261 8.04427 12.3624 8.0067ZM0.579996 2.10962C0.556862 2.16495 0.533736 2.22026 0.508545 2.27411V3.32837C0.512023 3.33222 0.515845 3.33586 0.519671 3.33952L0.519673 3.33952L0.519673 3.33952C0.52793 3.3474 0.536204 3.3553 0.541073 3.36528C0.675574 3.63392 0.900705 3.76012 1.14438 3.70249C1.40821 3.64 1.56014 3.43306 1.56194 3.13115C1.56314 2.93191 1.56382 2.73308 1.56177 2.53424C1.56014 2.38165 1.6312 2.3078 1.78493 2.30902L1.84583 2.30949C2.042 2.31104 2.23815 2.31259 2.43416 2.3078C2.7355 2.3013 2.96226 2.07691 2.96638 1.78921C2.97051 1.4946 2.74006 1.26208 2.43081 1.2564C2.18524 1.25193 1.93917 1.24828 1.69395 1.25843C1.30333 1.27426 0.97718 1.43576 0.755127 1.75917C0.681938 1.86579 0.630947 1.98775 0.579996 2.10962ZM0.508545 15.6952C0.515401 15.684 0.522389 15.6729 0.529369 15.6618L0.529375 15.6618L0.529377 15.6618C0.543362 15.6396 0.557312 15.6175 0.570086 15.5945C0.690337 15.3795 0.922764 15.2683 1.14428 15.3202C1.3841 15.3774 1.55216 15.573 1.56006 15.8218C1.56623 16.0164 1.56434 16.2114 1.56245 16.4067L1.56168 16.4889C1.5604 16.6415 1.63103 16.7157 1.78476 16.7141C1.99522 16.7125 2.20583 16.7117 2.41639 16.7145C2.73078 16.719 2.96219 16.9393 2.96638 17.2335C2.9706 17.535 2.73645 17.7631 2.41364 17.7675C2.17967 17.7704 1.94561 17.7716 1.7118 17.7667C1.18377 17.755 0.732042 17.4141 0.567939 16.9101C0.555701 16.8725 0.541498 16.8354 0.527313 16.7984L0.527308 16.7984L0.527296 16.7984L0.527294 16.7984C0.520983 16.7819 0.514675 16.7655 0.508545 16.749V15.6952ZM0.535391 5.11021L0.508545 5.15522V6.84167L0.530321 6.87771L0.530325 6.87771L0.530326 6.87772C0.546333 6.90414 0.562331 6.93054 0.577971 6.95733C0.69617 7.16023 0.928331 7.26695 1.14326 7.21622C1.37629 7.16144 1.55379 6.97194 1.55816 6.73413C1.56717 6.24395 1.56709 5.75295 1.55816 5.26194C1.55387 5.02455 1.37612 4.83465 1.14326 4.78027C0.928084 4.72954 0.696075 4.83626 0.5778 5.03876C0.563848 5.06266 0.54964 5.0864 0.53541 5.11018L0.535409 5.11018L0.535406 5.11018L0.535401 5.11019L0.535391 5.11021ZM0.508545 8.66854L0.535709 8.62299L0.535753 8.62292C0.549868 8.59933 0.56396 8.57577 0.5778 8.55207C0.696075 8.34917 0.928084 8.24327 1.14326 8.29358C1.37612 8.34796 1.55387 8.53788 1.55816 8.77527C1.56709 9.26626 1.56717 9.75726 1.55816 10.2475C1.55379 10.4848 1.37629 10.6748 1.14326 10.7295C0.928331 10.7803 0.69617 10.6735 0.577971 10.4706C0.562334 10.4439 0.546337 10.4175 0.530333 10.391L0.508545 10.355V8.66854ZM0.540473 12.1284L0.508545 12.1819V13.8683L0.53036 13.9044C0.546355 13.9308 0.562342 13.9572 0.577971 13.984C0.69617 14.1873 0.928331 14.2936 1.14326 14.2433C1.37629 14.1881 1.55379 13.9986 1.55816 13.7608C1.56717 13.2702 1.56709 12.7796 1.55816 12.289C1.55387 12.0512 1.37612 11.8613 1.14326 11.8069C0.928084 11.7566 0.696075 11.8625 0.5778 12.0658C0.565503 12.0866 0.553007 12.1075 0.540473 12.1284ZM5.264 1.25518C5.3305 1.25518 5.39702 1.25496 5.46353 1.25474C5.61891 1.25423 5.7743 1.25372 5.92961 1.256C6.24297 1.26046 6.4742 1.48081 6.47857 1.77418C6.48313 2.07528 6.24932 2.30577 5.9278 2.30822C5.47239 2.31187 5.01688 2.31226 4.56155 2.3078C4.25153 2.30497 4.021 2.07488 4.02134 1.78108C4.02176 1.48852 4.25343 1.26128 4.56335 1.2564C4.7288 1.25353 4.89425 1.25411 5.0597 1.2547C5.1278 1.25494 5.1959 1.25518 5.264 1.25518ZM5.46245 16.7136C5.39066 16.7139 5.31887 16.7141 5.24709 16.7141C5.17791 16.7141 5.10873 16.7139 5.03955 16.7137C4.88686 16.7133 4.73416 16.7128 4.58146 16.7145C4.25745 16.7182 4.0221 16.9397 4.02134 17.2396C4.02066 17.5399 4.25506 17.7655 4.57846 17.7675C5.02804 17.77 5.47762 17.7704 5.92721 17.7671C6.24898 17.7647 6.48279 17.5346 6.47857 17.2335C6.47454 16.9401 6.24341 16.719 5.93021 16.7145C5.77429 16.7126 5.61837 16.7131 5.46245 16.7136Z" fill="black"/>
</svg>
