<svg width="58" height="50" viewBox="0 0 58 50" fill="none" xmlns="http://www.w3.org/2000/svg">
<path fill-rule="evenodd" clip-rule="evenodd" d="M35.6354 49.1562C34.65 49.1562 33.6644 49.1549 32.6788 49.1521C31.6072 49.1488 31.0386 48.5743 31.035 47.49C31.0312 46.3879 31.0289 45.2022 31.0358 43.9998C31.0413 43.0624 31.6359 42.4079 32.4818 42.4079H32.4987C33.3321 42.416 33.9213 43.0649 33.9316 43.9848C33.936 44.3845 33.9347 44.7838 33.9336 45.166L33.9327 46.1448H34.4158C34.967 46.1448 35.5224 46.1651 36.0595 46.1846C36.5867 46.2036 37.1318 46.2235 37.6631 46.2235C37.6632 46.2235 37.6633 46.2235 37.6633 46.2235C38.4265 46.2235 39.0533 46.1829 39.6353 46.0953C42.7302 45.629 44.9566 43.7121 46.0734 40.551C46.1171 40.4268 46.1299 40.3128 46.1421 40.2024C46.1467 40.1614 46.1515 40.1168 46.1591 40.0685L46.2451 39.5118H45.6817C45.513 39.5118 44.8682 39.5146 44.7127 39.5146C44.5269 39.5146 44.3429 39.5134 44.1588 39.5102C43.2476 39.4943 42.6348 38.8994 42.6335 38.0298C42.6245 31.5595 42.6247 25.0933 42.6338 18.8101C42.635 17.9522 43.2277 17.3622 44.1088 17.3419C44.3226 17.3367 44.5366 17.3354 44.7538 17.3354C44.9331 17.3354 45.1146 17.3363 45.2996 17.3375C45.4945 17.3387 45.6934 17.3395 45.8985 17.3395H46.4661L46.3755 16.7795C45.5101 11.4361 42.7585 7.42084 38.1969 4.84488C35.8948 3.54473 33.3848 2.88574 30.7368 2.88574C30.6779 2.88574 30.6189 2.88614 30.5598 2.88654C30.1309 2.89144 29.7011 2.89264 29.2709 2.89344C27.5363 2.89834 25.7428 2.90279 23.9967 3.14909C17.2164 4.10474 11.7098 9.84624 10.9032 16.8006L10.8408 17.3391H11.3831C11.5599 17.3391 12.2578 17.3371 12.4305 17.3371C12.6358 17.3371 12.841 17.3379 13.046 17.3403C14.0221 17.3521 14.6054 17.9376 14.6061 18.9062C14.6116 25.3165 14.6116 31.7223 14.6061 37.9454C14.6052 38.923 14.0326 39.5065 13.0744 39.5065H13.0562C12.8848 39.5049 12.7128 39.5045 12.5411 39.5045C12.1484 39.5045 11.7554 39.5077 11.3623 39.5106C10.9715 39.5134 10.5805 39.5162 10.1899 39.5162C9.18923 39.5162 8.00818 39.4992 6.83524 39.3718C3.22648 38.9802 0.219068 35.641 0.131256 31.9276C0.0792303 29.7169 0.0786503 27.373 0.129516 24.9606C0.208918 21.1981 3.23066 17.906 7.00866 17.4653C7.76951 17.3764 7.9362 16.9159 7.9989 16.4772C9.13419 8.54444 14.5693 2.44584 22.1832 0.561385C23.5568 0.221335 24.9438 0.0391352 26.3061 0.0200352C27.0648 0.00948516 27.8381 -0.00146484 28.598 -0.00146484C29.9399 -0.00146484 31.7057 0.0277852 33.465 0.253785C37.1702 0.730185 40.781 2.50999 43.6325 5.26529C46.4725 8.00924 48.3943 11.5566 49.0442 15.2542C49.0703 15.4019 49.0816 15.5723 49.0935 15.7521C49.1239 16.211 49.1585 16.7308 49.4775 17.1029C49.7855 17.4616 50.2898 17.5237 50.7349 17.5785C50.9186 17.6012 51.0919 17.6227 51.2328 17.6605C54.6745 18.5808 57.0949 21.7082 57.1188 25.2658C57.1335 27.5008 57.1335 29.5679 57.1185 31.5855C57.0883 35.6251 54.1436 38.9108 50.1165 39.3986C49.4123 39.4842 49.2269 39.9127 49.1385 40.3205C47.9963 45.5852 43.5889 49.1346 38.1708 49.1525C37.3257 49.1553 36.4806 49.1562 35.6354 49.1562ZM45.5667 36.6043H46.0498C46.4222 36.6043 46.7983 36.6116 47.1622 36.6185C47.531 36.6254 47.8972 36.6327 48.2613 36.6327C48.7806 36.6327 49.2101 36.6185 49.6128 36.5877C52.1469 36.3941 54.1665 34.2536 54.2106 31.7141C54.2468 29.6114 54.2469 27.3994 54.2109 25.1392C54.1726 22.7349 52.4128 20.6832 50.1175 20.3671C49.6545 20.303 49.158 20.2734 48.5546 20.2734C48.1381 20.2734 47.7137 20.2876 47.3033 20.3014C46.8924 20.3151 46.4675 20.3293 46.0498 20.3293H45.5667V36.6043ZM8.97191 20.2186C8.45246 20.2186 8.02285 20.2324 7.62016 20.2624C5.08411 20.4519 3.06606 22.5945 3.02563 25.1404C2.99182 27.2813 2.99182 29.4933 3.02563 31.7146C3.06229 34.1156 4.82438 36.1661 7.12455 36.4834C7.58745 36.5475 8.08387 36.5771 8.6873 36.5771C9.10374 36.5771 9.52766 36.5629 9.93766 36.5491C10.3471 36.5353 10.7705 36.5211 11.1858 36.5211H11.6688V20.2462H11.1858C10.8111 20.2462 10.4398 20.2393 10.0713 20.2324C9.70242 20.2255 9.33609 20.2186 8.97191 20.2186Z" fill="#858E97"/>
</svg>
