<svg width="17" height="14" viewBox="0 0 17 14" fill="none" xmlns="http://www.w3.org/2000/svg">
<g clip-path="url(#clip0_8_1048)">
<path d="M8.61843 14C8.49667 14 8.38167 13.9743 8.27343 13.9165C8.2396 13.8972 8.21255 13.8779 8.17872 13.8587L7.95548 13.7109C7.42106 13.3575 6.17633 12.5351 5.34426 11.9247C2.17156 9.57962 0.548 7.88986 0.243583 6.60486C0.0947572 6.18082 0.00681453 5.66682 4.97086e-05 5.13997C-0.0202448 3.74575 0.534471 2.39651 1.52214 1.43919C2.42186 0.571822 3.6057 0.0899495 4.85043 0.0835245C6.25751 0.0835245 7.5293 0.623222 8.44931 1.56127C9.3558 0.591097 10.6344 0.0192749 12.0211 0H12.1158C14.7744 0 16.9662 2.21661 17 4.93437C17 5.46122 16.9324 5.97522 16.7836 6.46352C16.5265 7.69711 14.9097 9.48325 11.852 11.8605C10.6749 12.7793 9.7211 13.4667 9.01079 13.8908C8.89579 13.9614 8.7605 14 8.6252 14H8.61843ZM4.90455 1.45204C4.00483 1.45204 3.18628 1.79257 2.55715 2.39651C1.83332 3.09041 1.42743 4.08628 1.44772 5.1207C1.44772 5.51262 1.51537 5.88527 1.63714 6.23864C1.7792 6.82331 2.54362 8.11473 6.23722 10.8453C6.96782 11.3786 8.05695 12.1046 8.63873 12.4901C9.24756 12.0918 10.039 11.5135 10.9455 10.8068C14.5512 7.99908 15.2818 6.67554 15.3968 6.13584C15.5253 5.71822 15.5794 5.33915 15.5727 4.95365C15.5456 2.97476 13.9965 1.36209 12.1226 1.36209C12.1226 1.36209 12.055 1.36209 12.0482 1.36209C10.8238 1.37494 9.72787 2.00459 9.1055 3.04543C8.97697 3.25746 8.74697 3.38596 8.4899 3.39238C8.25313 3.39238 7.99607 3.27031 7.86754 3.06471C7.22488 2.05599 6.12221 1.44562 4.91808 1.44562L4.90455 1.45204Z" fill="#4F453C"/>
<path d="M13.9761 6.2065C13.9761 6.2065 13.9288 6.2065 13.9017 6.20008C13.7055 6.16153 13.5837 5.98163 13.6243 5.79531L13.6785 5.59613C13.7393 5.39696 13.7732 5.18494 13.7664 4.97291C13.7529 3.90637 13.0087 3.07112 12.0617 3.07112C11.8655 3.07112 11.7031 2.91692 11.7031 2.7306C11.7031 2.54427 11.8655 2.39008 12.0617 2.39008C13.4011 2.39008 14.4632 3.52087 14.4835 4.96649C14.4835 5.24919 14.4496 5.52546 14.3685 5.78888L14.3279 5.93666C14.2941 6.09728 14.1452 6.2065 13.9761 6.2065Z" fill="#4F453C"/>
</g>
<defs>
<clipPath id="clip0_8_1048">
<rect width="17" height="14" fill="white"/>
</clipPath>
</defs>
</svg>
