<svg width="51" height="61" viewBox="0 0 51 61" fill="none" xmlns="http://www.w3.org/2000/svg">
<path fill-rule="evenodd" clip-rule="evenodd" d="M19.0914 11.126C18.882 11.126 18.6731 11.0777 18.4704 10.9823C17.9179 10.7227 17.6363 10.3047 17.6332 9.74025C17.6204 7.30391 17.6233 4.90039 17.6318 2.04083C17.6338 1.41912 17.9517 1.00279 18.692 0.658691H19.4948C20.2453 1.02634 20.5588 1.63018 20.5403 2.6637C20.5164 3.99917 20.5203 5.35569 20.5242 6.66762C20.5271 7.61104 20.5299 8.58698 20.5223 9.54548C20.5154 10.4317 19.8868 11.126 19.0914 11.126ZM29.3573 60.3401C27.3167 60.325 25.111 60.3177 22.6142 60.3177C20.0132 60.3177 17.369 60.3254 14.8119 60.3331L13.7551 60.336C13.0827 60.336 12.5877 60.1359 12.1415 59.6871C9.75036 57.2819 7.31389 54.8453 4.94941 52.4807L4.6451 52.1764C3.48287 51.0146 2.32052 49.8524 1.159 48.6898C0.384768 47.9144 0.38385 47.1276 1.15625 46.3513L1.32215 46.1845L1.36525 46.1412C2.79373 44.7056 4.27003 43.2219 5.73763 41.7801C6.10523 41.419 6.26145 41.0452 6.25992 40.5298C6.25182 37.6657 6.24867 34.8016 6.24552 31.9374L6.24533 31.7672L6.24508 31.5467C6.24068 27.637 6.23613 23.6003 6.21861 19.6289C6.21494 18.782 6.49712 18.1895 7.16195 17.6487C8.44807 16.6025 9.98333 16.0494 11.6018 16.0494C14.8383 16.0494 17.6477 18.2618 18.4336 21.4298C18.6818 22.4301 18.9106 23.4315 19.1527 24.4922C19.2677 24.9963 19.3854 25.5116 19.5089 26.0432L19.6394 26.6044L20.0409 26.1913C20.2415 25.985 20.4308 25.789 20.6132 25.6001L20.6202 25.5927L20.6458 25.5663L20.646 25.5661C21.0076 25.1917 21.35 24.8372 21.6928 24.4939L22.8229 23.363C27.6894 18.4923 32.7215 13.4561 37.676 8.50829C38.7837 7.40206 40.1651 6.79297 41.5657 6.79297C42.399 6.79297 43.2127 7.00037 43.9844 7.41023C45.4497 8.1881 46.4438 9.56658 46.7117 11.1925C46.9763 12.7979 46.4851 14.4003 45.3643 15.5889C44.1475 16.8796 42.8618 18.1497 41.6182 19.3783L41.6085 19.3879L41.5007 19.4944L41.5004 19.4947C41.0186 19.9707 40.537 20.4467 40.058 20.9254C39.9709 21.0123 39.866 21.0954 39.7443 21.1916L39.7441 21.1918C39.6763 21.2453 39.6038 21.3024 39.5259 21.3669L39.1678 21.6631L39.5757 21.8859C42.0734 23.2485 43.0806 25.2434 42.6545 27.9841L42.615 28.2381L42.8563 28.3274C45.8428 29.432 47.0971 31.4941 46.6911 34.6321L46.6633 34.8464L46.8534 34.9494C47.0569 35.0594 47.2622 35.1621 47.4608 35.2607L47.4683 35.2644C47.887 35.4736 48.2825 35.6712 48.6327 35.9238C49.8214 36.7812 50.5743 38.05 50.7523 39.4967C50.9322 40.9563 50.5039 42.3851 49.5465 43.5197C49.364 43.7364 49.1649 43.9384 48.9599 44.1434C47.5764 45.5283 46.1914 46.9117 44.8064 48.2946C41.649 51.448 38.3844 54.7085 35.1903 57.9329C33.5859 59.5524 31.7017 60.3401 29.4302 60.3401H29.3573ZM22.1125 57.4188C24.8127 57.4188 27.0799 57.4216 29.3676 57.4362H29.4096C30.8889 57.4362 32.1156 56.9188 33.1599 55.8541C34.8208 54.1603 36.5296 52.4565 38.1823 50.8085L38.1826 50.8082L38.199 50.7918C38.9302 50.063 39.6611 49.3343 40.3905 48.6038C40.4934 48.5007 40.5901 48.3944 40.6926 48.2816C40.741 48.2281 40.7912 48.1729 40.8449 48.1149L41.1273 47.8097L40.7568 47.6206C38.836 46.6423 37.8118 45.1384 37.6259 43.0238L37.604 42.773L37.3548 42.7394C34.3258 42.3295 32.6568 40.6641 32.2527 37.6479L32.222 37.4195L31.995 37.3797L31.7968 37.344L31.7559 37.3366C31.6223 37.3127 31.4888 37.2888 31.3547 37.2685C30.1681 37.0884 29.1521 36.547 28.3348 35.6596C26.3646 33.519 26.4878 30.4083 28.6277 28.2625C31.6948 25.187 34.7663 22.1159 37.8378 19.0449L37.8828 18.9999L37.9359 18.9468L37.9494 18.9333C39.5721 17.3109 41.1948 15.6884 42.817 14.0655L42.8886 13.9937C43.0654 13.818 43.248 13.6362 43.4044 13.4256C43.8759 12.7906 44.0008 12.0074 43.747 11.277C43.4952 10.5518 42.8913 9.99669 42.1317 9.79179C41.9215 9.73537 41.7131 9.70658 41.5122 9.70658C40.877 9.70658 40.2878 9.98736 39.711 10.5648C35.9011 14.3796 32.0895 18.1924 28.2779 22.0052L21.4022 28.8837C21.3192 28.9669 21.2489 29.0544 21.181 29.1388L21.178 29.1426C21.149 29.1791 21.1198 29.2157 21.0894 29.2518L20.907 29.4689L21.1038 29.6725C23.4717 32.1268 24.5493 35.042 24.3067 38.3382C24.1132 40.9632 23.0615 43.2551 21.1806 45.1501C20.8881 45.4448 20.5116 45.6071 20.1204 45.6071C19.4766 45.6071 18.925 45.1801 18.7477 44.5443C18.5938 43.9928 18.7474 43.5088 19.2455 42.9747C22.2381 39.7662 22.1829 34.9653 19.117 31.8079L18.9256 31.6098C18.6496 31.3229 18.364 31.0267 18.058 30.754C17.6566 30.3969 17.4139 29.9505 17.2707 29.307C16.655 26.5379 16.1334 24.2797 15.6293 22.2004C15.1586 20.2587 13.5517 18.9541 11.6308 18.9541C11.094 18.9541 10.5614 19.0592 10.0478 19.2666C9.39377 19.5303 9.11602 19.9401 9.11933 20.6365C9.13685 24.3068 9.14163 28.0386 9.14625 31.6493L9.14626 31.6506L9.14631 31.6962C9.15024 34.8626 9.15437 38.1373 9.16697 41.3581C9.17008 42.1506 8.94313 42.7069 8.40875 43.2174C7.50703 44.0784 6.61636 44.9779 5.75434 45.8485L5.72258 45.8806L5.59162 46.0129L5.59156 46.0129C5.30583 46.3016 5.02002 46.5904 4.73313 46.8776C4.6368 46.9745 4.54708 47.0758 4.46016 47.174L4.4589 47.1755C4.41907 47.2205 4.37883 47.2659 4.33773 47.3114L4.15336 47.5143L4.32921 47.7249C4.35296 47.753 4.37342 47.7785 4.39188 47.8015L4.39883 47.8101C4.44294 47.8649 4.48088 47.9119 4.52816 47.959L5.91307 49.3456L5.97718 49.4098L5.9787 49.4113C8.49039 51.9262 11.0858 54.5249 13.6533 57.0666C13.91 57.3206 14.3385 57.4122 14.654 57.4135C16.2 57.418 17.746 57.4192 19.292 57.4192L22.1125 57.4188ZM45.5663 37.8086C44.9591 37.8086 44.374 38.0513 43.9185 38.4911L43.8234 38.5829L43.8154 38.5906L43.8153 38.5907C42.9571 39.4201 42.07 40.2774 41.2528 41.1779C40.9746 41.4844 40.806 41.8652 40.6827 42.1434L40.6825 42.1441C40.6419 42.2358 40.6068 42.3149 40.5778 42.3688L40.5376 42.4431L40.5402 42.5279C40.5771 43.738 41.0051 44.4968 41.8874 44.9156C42.2354 45.0808 42.5846 45.1644 42.9253 45.1644C43.4816 45.1644 44.0151 44.9363 44.4683 44.5049C45.4002 43.6183 46.3281 42.6915 47.2257 41.7513C48.1192 40.8151 48.1133 39.4204 47.2122 38.507C46.768 38.0566 46.1835 37.8086 45.5663 37.8086ZM41.5163 31.1001C40.9608 31.1001 40.4349 31.3099 40.035 31.6913C38.6478 33.0134 37.2551 34.4049 35.7776 35.9452C35.1313 36.6189 35.0009 37.5266 35.4199 38.436C35.8031 39.2674 36.4957 39.7446 37.5377 39.894L37.6305 39.9074L37.7156 39.8676C37.8353 39.8116 37.965 39.7629 38.1023 39.7114C38.4291 39.5888 38.767 39.4618 39.0286 39.2126C40.5397 37.7741 41.9739 36.3441 43.2915 34.9636C44.1256 34.0896 44.081 32.7038 43.1897 31.8086C42.7414 31.3582 42.1315 31.1001 41.5163 31.1001ZM37.5442 24.4168C36.9273 24.4168 36.3271 24.6737 35.8544 25.1403C34.0537 26.9169 32.2923 28.6626 30.5397 30.4797C30.2507 30.7796 30.0868 31.1736 29.9673 31.4609C29.9266 31.5587 29.8915 31.6431 29.8611 31.7007L29.8207 31.7778L29.8255 31.8646C29.8914 33.0723 30.3149 33.7986 31.1985 34.2194C31.5276 34.3761 31.8661 34.4556 32.2049 34.4556C32.7986 34.4556 33.3601 34.2113 33.8285 33.7491C35.8371 31.7681 37.5788 30.026 39.1532 28.4231C39.6195 27.9484 39.8724 27.343 39.8651 26.718C39.8579 26.1065 39.6025 25.5258 39.1461 25.0827C38.704 24.6533 38.1352 24.4168 37.5442 24.4168ZM26.7906 11.1223C26.0245 11.0761 25.5864 10.8245 25.3326 10.288C25.1462 9.89482 25.0278 9.3113 25.5209 8.76632C26.1958 8.02054 26.9019 7.31404 27.6196 6.6664C27.8707 6.43997 28.1819 6.32028 28.5196 6.32028C28.8936 6.32028 29.2659 6.47486 29.541 6.7443C30.0859 7.27872 30.1369 8.12113 29.6567 8.66287C29.0365 9.36284 28.3363 10.0608 27.5163 10.7973C27.3681 10.93 27.1339 11.0075 26.9458 11.0692C26.8914 11.0871 26.839 11.1045 26.7906 11.1223ZM11.1657 11.055C11.2252 11.0797 11.2826 11.1037 11.3355 11.1276C12.1178 11.0721 12.5569 10.8176 12.7964 10.2852C13.0596 9.69968 12.9817 9.15471 12.5706 8.70911C11.8988 7.98113 11.2189 7.30269 10.5499 6.69238C10.2844 6.45052 9.95905 6.3223 9.60893 6.3223C9.22904 6.3223 8.86592 6.47486 8.58649 6.75204C8.03048 7.30269 8.01437 8.18402 8.54977 8.75784C9.14519 9.39615 9.79228 10.0714 10.4883 10.6837C10.6804 10.8525 10.9496 10.9649 11.1657 11.055Z" fill="#858E97"/>
</svg>
