<svg width="20" height="16" viewBox="0 0 20 16" fill="none" xmlns="http://www.w3.org/2000/svg">
<path id="Combined shape 2144" fill-rule="evenodd" clip-rule="evenodd" d="M9.99996 9.4999C11.1028 9.4999 12 10.3972 12 11.5C12 12.6027 11.1028 13.5 9.99996 13.5C8.89712 13.5 7.99992 12.6027 7.99992 11.5C7.99992 10.3972 8.89712 9.4999 9.99996 9.4999ZM14.9999 -4.8e-05H4.99998C4.99998 0.999936 4.99998 1.99994 4.99998 3.99992C3.25838 3.99992 1.7361 3.99992 0 3.99992C0 7.99997 0 10.9999 0 16H3.99996V13.9999H1.99994V5.99998H18V13.9999H16V16H19.9999C19.9999 10.9999 19.9999 7.99997 19.9999 3.99992H19V1.99994H17V3.99992H14.9999C14.9999 1.99994 14.9999 0.999936 14.9999 -4.8e-05ZM6.99992 3.99992V1.99994H13V3.99992H6.99992ZM9.99996 7.49992C7.79076 7.49992 5.99998 9.2907 5.99998 11.5C5.99998 13.7091 7.79076 15.5 9.99996 15.5C12.2092 15.5 13.9999 13.7091 13.9999 11.5C13.9999 9.2907 12.2092 7.49992 9.99996 7.49992Z" fill="white"/>
</svg>
