<svg width="24" height="23" viewBox="0 0 24 23" fill="none" xmlns="http://www.w3.org/2000/svg">
<path id="Combined shape 2185" fill-rule="evenodd" clip-rule="evenodd" d="M0.990991 22.9584C0.72817 22.9584 0.475998 22.8543 0.290181 22.668C0.0898513 22.4675 -0.0152127 22.1912 0.00178428 21.9086L0.298921 16.8751C0.313342 16.633 0.416083 16.4042 0.587318 16.2328L15.5898 1.23107C15.7757 1.04528 16.0273 0.940674 16.2906 0.940674C16.5538 0.940674 16.8065 1.04528 16.9923 1.23162L21.7266 5.96507C21.9125 6.15096 22.017 6.4031 22.017 6.66599C22.017 6.92925 21.9125 7.1814 21.7266 7.36717L6.72319 22.3728C6.55142 22.5446 6.32244 22.6472 6.08048 22.6613L1.049 22.9564C1.0297 22.9579 1.01038 22.9584 0.990991 22.9584ZM2.25509 17.3682L2.12451 19.5829C2.73436 19.76 3.18649 20.2203 3.35264 20.8359L5.58782 20.7046L17.1908 9.09972L16.226 8.1349L5.13969 19.2203C4.94605 19.4139 4.69243 19.5106 4.43888 19.5106C4.18525 19.5106 3.93163 19.4139 3.738 19.2203C3.35091 18.8331 3.35091 18.2059 3.738 17.8187L14.8245 6.73325L13.8578 5.76647L2.25509 17.3682ZM19.6233 6.66682L18.5922 7.69803L15.2594 4.36499L16.2906 3.33389L19.6233 6.66682ZM10.9416 22.7991H22.0113C22.559 22.7991 23.0024 22.3554 23.0024 21.808C23.0024 21.2607 22.559 20.8168 22.0113 20.8168H10.9416C10.3938 20.8168 9.95041 21.2607 9.95041 21.808C9.95041 22.3554 10.3938 22.7991 10.9416 22.7991Z" fill="#4EA59C"/>
</svg>
