<svg width="17" height="17" viewBox="0 0 17 17" fill="none" xmlns="http://www.w3.org/2000/svg">
<path fill-rule="evenodd" clip-rule="evenodd" d="M11.517 9.04044C12.6134 8.15744 13.3166 6.80574 13.3166 5.28847C13.3166 2.62838 11.1601 0.471863 8.49993 0.471863C5.83978 0.471863 3.68328 2.62838 3.68328 5.28847C3.68328 6.80574 4.38642 8.15744 5.48287 9.04044C2.54557 10.1438 0.472168 12.871 0.472168 16.5271H2.07768C2.07768 12.5138 4.95872 10.1051 8.49993 10.1051C12.0411 10.1051 14.9222 12.5138 14.9222 16.5271H16.5277C16.5277 12.871 14.4543 10.1438 11.517 9.04044ZM8.49993 8.49969C6.72927 8.49969 5.28879 7.05907 5.28879 5.28847C5.28879 3.51789 6.72927 2.07727 8.49993 2.07727C10.2705 2.07727 11.711 3.51789 11.711 5.28847C11.711 7.05907 10.2705 8.49969 8.49993 8.49969Z" fill="black"/>
</svg>
