<svg width="46" height="31" viewBox="0 0 46 31" fill="none" xmlns="http://www.w3.org/2000/svg">
<path fill-rule="evenodd" clip-rule="evenodd" d="M0.186254 11.7973C0.186254 5.83342 4.83161 0.998047 10.7048 0.998047C16.5759 0.998047 21.1057 5.82937 21.1057 11.7904V11.7973C21.1057 22.3835 12.8536 30.9959 2.42875 30.9968C0.96002 30.9968 0 29.7875 0 28.2966C0 26.8066 1.18303 25.5969 2.65185 25.5969C5.8443 25.5969 8.76194 24.4652 11.0841 22.5876C11.058 22.5882 11.0264 22.59 10.9942 22.5918C10.9539 22.5942 10.9127 22.5965 10.8801 22.5965C5.00581 22.5965 0.186254 17.7616 0.186254 11.7973ZM25.1039 11.7973C25.1039 5.83342 29.7412 0.998047 35.6143 0.998047C41.4855 0.998047 46.0004 5.82937 46.0004 11.7904V11.7973C46.0004 22.3835 37.7632 30.9959 27.3384 30.9968C25.8697 30.9968 24.9245 29.7875 24.9245 28.2966C24.9245 26.8066 26.1066 25.5969 27.5753 25.5969C30.7678 25.5969 33.6844 24.4652 36.0066 22.5876C35.9806 22.5882 35.9488 22.59 35.9162 22.5918C35.8753 22.5942 35.8333 22.5965 35.8006 22.5965C29.9275 22.5965 25.1039 17.7616 25.1039 11.7973Z" fill="#4EA59C"/>
</svg>
