<svg width="50" height="55" viewBox="0 0 50 55" fill="none" xmlns="http://www.w3.org/2000/svg">
<path fill-rule="evenodd" clip-rule="evenodd" d="M24.1417 54.0541H25.5122C37.5058 49.1112 44.9533 40.218 48.2653 27.7631C49.0446 24.8321 49.3323 21.8228 49.3367 18.7895C49.3395 16.8568 49.341 14.9239 49.3363 12.9908C49.3312 10.9696 48.2841 9.48394 46.3798 8.76696C43.7997 7.79506 41.8749 6.0778 40.8869 3.50105C40.1958 1.6993 39.1298 0.46169 37.2139 0.0424805H12.3345C12.2323 0.079218 12.1293 0.11395 12.0262 0.148681C11.8014 0.224441 11.5766 0.300193 11.3612 0.396735C10.2695 0.88695 9.47556 1.68148 9.06871 2.81239C8.01001 5.75561 6.03041 7.75733 3.09111 8.84243C1.36076 9.48114 0.314664 11.028 0.321814 12.8735C0.324308 13.5249 0.323767 14.1765 0.323226 14.8282C0.321446 16.9716 0.319666 19.1157 0.425914 21.2538C0.702864 26.8286 2.24451 32.0718 4.91681 36.9668C8.82341 44.1224 14.4478 49.4988 21.7754 53.075C22.2982 53.3301 22.842 53.5422 23.3858 53.7542C23.6385 53.8528 23.8911 53.9513 24.1417 54.0541ZM21.5248 3.2071C22.6346 3.20717 23.7443 3.20724 24.854 3.20724C25.807 3.20724 26.7599 3.20721 27.7129 3.20719C30.5718 3.20712 33.4306 3.20704 36.2895 3.20762C37.1639 3.20762 37.4274 3.39594 37.7406 4.21077C39.1148 7.78494 41.5702 10.2862 45.1469 11.6716C45.9827 11.9954 46.1813 12.2709 46.1731 13.1673C46.1658 13.9515 46.1661 14.7362 46.1664 15.5208C46.167 17.3735 46.1676 19.2262 46.0694 21.0737C45.7493 27.0924 43.8883 32.6395 40.6311 37.7017C36.9123 43.4813 31.9074 47.7875 25.6503 50.6378C25.0968 50.8898 24.6126 50.9227 24.0494 50.6552C13.1217 45.4713 6.47456 36.9323 4.05046 25.0967C3.59821 22.8888 3.46276 20.6407 3.47686 18.3854C3.48383 17.2767 3.48233 16.1681 3.48083 15.0595C3.47993 14.3928 3.47902 13.7261 3.47996 13.0594C3.48106 12.2969 3.69406 11.9987 4.41456 11.7199C8.04211 10.3166 10.5537 7.8032 11.9307 4.15923C12.2133 3.41096 12.5089 3.20806 13.3131 3.20762C16.0503 3.20676 18.7876 3.20693 21.5248 3.2071ZM31.7992 20.5647C31.6799 20.5469 31.5574 20.5286 31.4305 20.5068C31.4305 20.4387 31.4305 20.3719 31.4306 20.306C31.4306 20.1771 31.4307 20.0517 31.4305 19.9265C31.43 19.4998 31.4316 19.0731 31.4333 18.6464C31.4369 17.7018 31.4405 16.7572 31.421 15.8131C31.3505 12.4024 28.4791 9.53064 25.0705 9.43731C21.2955 9.33424 18.2536 12.275 18.2256 16.0643C18.2181 17.0755 18.22 18.087 18.222 19.1079C18.2229 19.5752 18.2238 20.0444 18.2238 20.5166C18.1586 20.5261 18.0977 20.5357 18.0395 20.5448C17.9294 20.5621 17.8291 20.5779 17.7284 20.5888C15.8211 20.7945 14.3522 22.2931 14.3285 24.1983C14.2884 27.432 14.2571 30.6681 14.3391 33.9006C14.43 37.4866 17.5233 40.4899 21.1049 40.5511C23.5811 40.5933 26.0591 40.5925 28.5354 40.5515C32.1221 40.4923 35.2219 37.4943 35.3133 33.9132C35.3942 30.7367 35.3613 27.5566 35.3284 24.3784L35.3267 24.2104C35.3091 22.5134 34.15 21.1265 32.5052 20.6955C32.279 20.6364 32.0463 20.6016 31.7992 20.5647ZM23.036 23.7182C23.6332 23.7184 24.2304 23.7186 24.8276 23.7186C25.419 23.7186 26.0104 23.7184 26.6017 23.7183C28.1356 23.7179 29.6694 23.7175 31.2032 23.7198C32.0268 23.7211 32.1823 23.8814 32.1828 24.714C32.183 25.2324 32.1834 25.7509 32.1837 26.2693C32.1852 28.5807 32.1867 30.8919 32.1821 33.2031C32.1768 35.7872 30.5531 37.3973 27.9607 37.3994C27.7573 37.3995 27.5539 37.3997 27.3505 37.3998C25.4287 37.4014 23.5068 37.403 21.5851 37.3985C19.1362 37.3929 17.4837 35.7559 17.4734 33.3062C17.464 31.0473 17.4667 28.7884 17.4695 26.5294C17.4702 25.906 17.471 25.2826 17.4715 24.6592C17.4721 23.8959 17.6402 23.7219 18.3993 23.7203C19.9449 23.717 21.4904 23.7176 23.036 23.7182ZM28.2454 20.409C28.2402 20.4451 28.2348 20.4826 28.2303 20.5222H21.3859C21.3859 20.1585 21.3851 19.7973 21.3843 19.4379C21.3824 18.5571 21.3805 17.6872 21.3902 16.8178C21.3911 16.7407 21.3914 16.6634 21.3918 16.5859C21.394 16.1357 21.3962 15.6796 21.4941 15.249C21.8786 13.5565 23.4915 12.4267 25.1737 12.6142C26.9182 12.809 28.2314 14.2252 28.2602 15.9847C28.277 17.007 28.2731 18.0295 28.2692 19.052C28.2677 19.4347 28.2662 19.8174 28.2659 20.2C28.2658 20.2676 28.256 20.3353 28.2454 20.409ZM23.2449 30.1199C23.2462 30.2648 23.2475 30.4097 23.2476 30.5546C23.2477 30.7097 23.2462 30.8649 23.2447 31.0201C23.2414 31.3562 23.2381 31.6922 23.2514 32.0276C23.2892 32.9787 23.9624 33.6495 24.8438 33.6385C25.7091 33.6276 26.372 32.9755 26.3985 32.0466C26.4265 31.0654 26.4253 30.0822 26.3994 29.101C26.3743 28.1523 25.6826 27.4738 24.81 27.4852C23.9326 27.4969 23.2826 28.1758 23.25 29.1343C23.2389 29.4626 23.2419 29.7913 23.2449 30.1199Z" fill="#858E97"/>
</svg>
