<svg width="23" height="16" viewBox="0 0 23 16" fill="none" xmlns="http://www.w3.org/2000/svg">
<path d="M9.30923 15.6892C5.09795 15.6117 3.65959 15.5419 2.77549 15.3598C2.17733 15.2387 1.65754 14.97 1.27641 14.5803C0.981847 14.2853 0.747591 13.8352 0.565847 13.2108C0.409949 12.6906 0.349232 12.2578 0.262667 11.2006C0.130155 8.81453 0.0985649 6.86376 0.262667 4.68407C0.398052 3.48038 0.463693 2.05145 1.36298 1.21781C1.78759 0.827659 2.28154 0.576582 2.83621 0.472787C3.70267 0.308274 7.39415 0.178223 11.2157 0.178223C15.0286 0.178223 18.7283 0.308274 19.5956 0.472787C20.2885 0.602838 20.9384 0.992582 21.3199 1.49515C22.1404 2.78581 22.1548 4.39074 22.2381 5.64612C22.2725 6.24427 22.2725 9.64079 22.2381 10.2389C22.1084 12.2229 22.0042 12.9249 21.7096 13.6527C21.5275 14.1122 21.372 14.3546 21.1029 14.6234C20.6808 15.0369 20.1427 15.3119 19.5603 15.4119C15.916 15.6859 12.8214 15.7454 9.30923 15.6892ZM14.8899 7.71709C12.8625 6.63361 10.9211 5.62889 8.93672 4.58889V10.8108C11.0249 9.67566 13.2264 8.63566 14.8986 7.70848L14.8899 7.71709Z" fill="white"/>
</svg>
