<svg width="17" height="17" viewBox="0 0 17 17" fill="none" xmlns="http://www.w3.org/2000/svg">
<path id="Combined shape 1081" fill-rule="evenodd" clip-rule="evenodd" d="M13.4962 9.91433C13.696 9.72371 14.0125 9.73143 14.2029 9.93103L14.5361 10.2807C14.7266 10.4803 14.7191 10.797 14.5194 10.9871C14.3195 11.178 14.0031 11.1705 13.8126 10.9702L13.4795 10.6213C13.289 10.4217 13.2965 10.1047 13.4962 9.91433ZM11.8882 11.1384C11.7768 10.8854 11.4817 10.7713 11.2292 10.8828C10.9766 10.9943 10.8622 11.2892 10.9736 11.5415L11.1569 11.9572C11.2683 12.21 11.5634 12.3245 11.816 12.2128C12.0686 12.1016 12.183 11.8064 12.0716 11.5538L11.8882 11.1384ZM9.51931 12.3692C9.50017 12.0938 9.26139 11.8858 8.98606 11.9048C8.71062 11.9238 8.50282 12.1629 8.52204 12.4381L8.55543 12.9203C8.57449 13.1957 8.81284 13.4032 9.0887 13.3845C9.36405 13.3652 9.57184 13.1258 9.5527 12.8507L9.51931 12.3692ZM8.92227 14.9528C8.64658 14.9662 8.43398 15.2002 8.44746 15.4761L8.47184 15.9755C8.48531 16.2507 8.7198 16.4634 8.99541 16.4495C9.27118 16.4367 9.48378 16.2021 9.4703 15.926L9.44592 15.4276C9.43246 15.1519 9.19788 14.9395 8.92227 14.9528ZM11.2049 13.9134C11.4696 13.8348 11.7479 13.9859 11.8263 14.2505L11.9597 14.7008C12.0382 14.9657 11.8873 15.2436 11.6226 15.3223C11.3583 15.4011 11.0798 15.2501 11.0013 14.9852L10.8678 14.5349C10.7893 14.2697 10.9403 13.9918 11.2049 13.9134ZM14.1755 13.0752C14.0328 12.8381 13.7256 12.7623 13.4892 12.9051C13.2529 13.0479 13.1769 13.3547 13.3194 13.5913L13.562 13.9941C13.7045 14.2299 14.0118 14.3067 14.2482 14.1637C14.4846 14.0211 14.5606 13.7133 14.4179 13.4772L14.1755 13.0752ZM16.5024 11.9209L16.8541 12.2752C17.0486 12.4715 17.0477 12.7877 16.8518 12.9824C16.6558 13.1777 16.3393 13.1761 16.1449 12.9804L15.7933 12.6264C15.5987 12.4304 15.5997 12.1139 15.7955 11.9191C15.9914 11.7247 16.3078 11.7254 16.5024 11.9209ZM14.3419 6.64071L14.1907 6.30032C13.9405 5.739 13.3468 5.43483 12.7662 5.52578L12.6728 5.31564C12.1291 4.09435 10.8479 3.42154 9.56781 3.6268L9.23943 2.88077C8.46917 1.13002 6.73592 -0.00134277 4.82386 -0.00134277C2.16389 -0.00134277 -0.000244141 2.16378 -0.000244141 4.8247V16.4988C-0.000244141 16.775 0.223595 16.9988 0.499624 16.9988H2.49896C2.77501 16.9988 2.99884 16.775 2.99884 16.4988V4.8247C2.99884 3.81742 3.81758 2.99895 4.82386 2.99895C5.54733 2.99895 6.20299 3.42642 6.49447 4.0887L6.84715 4.88997C5.93048 5.72154 5.63238 7.05842 6.14944 8.22062L6.24299 8.4305C5.79538 8.79376 5.61152 9.43446 5.86654 10.0073L6.01786 10.3475C6.34864 11.0907 7.21957 11.4303 7.96878 11.0963L13.5929 8.59234C14.3373 8.26044 14.6734 7.38519 14.3419 6.64071ZM11.7597 5.72281L11.8343 5.89031L7.13743 7.9817L7.06276 7.8142C6.63669 6.85598 7.05632 5.73181 8.02879 5.29766L9.2432 4.75689C10.2297 4.32016 11.3372 4.77384 11.7597 5.72281ZM4.82386 1.99859C3.26629 1.99859 1.99918 3.26638 1.99918 4.8247V15.9986H0.999424V4.8247C0.999424 2.71482 2.71508 0.998495 4.82386 0.998495C6.33972 0.998495 7.71386 1.89533 8.32455 3.28333L8.61457 3.94227L7.70142 4.34894L7.40943 3.68589C6.95847 2.66062 5.94352 1.99859 4.82386 1.99859ZM13.1863 7.67831L7.56229 10.1831C7.32086 10.2907 7.03855 10.1823 6.93118 9.94053L6.77995 9.60092C6.70493 9.43214 6.78055 9.2351 6.94886 9.16035C7.37947 8.96869 12.7101 6.59524 12.8373 6.53846C13.0052 6.46371 13.2027 6.54 13.2774 6.7075L13.4287 7.04762C13.5359 7.2886 13.4272 7.57144 13.1863 7.67831Z" fill="black"/>
</svg>
