<svg width="19" height="21" viewBox="0 0 19 21" fill="none" xmlns="http://www.w3.org/2000/svg">
<path d="M18.9999 8.60959C17.1327 8.61391 15.3114 8.05077 13.7931 6.99973V14.33C13.7926 15.6877 13.3635 17.0128 12.5632 18.1283C11.7629 19.2437 10.6296 20.0963 9.31478 20.572C7.99994 21.0477 6.56627 21.1239 5.20547 20.7903C3.84467 20.4568 2.62159 19.7294 1.6998 18.7054C0.777999 17.6814 0.201412 16.4097 0.0471339 15.0603C-0.107144 13.7109 0.168241 12.348 0.836465 11.1541C1.50469 9.96007 2.5339 8.99184 3.78648 8.37882C5.03907 7.76581 6.45531 7.53723 7.84585 7.72365V11.4105C7.20953 11.217 6.52625 11.2228 5.89357 11.4272C5.26089 11.6316 4.71117 12.0241 4.32291 12.5487C3.93465 13.0732 3.72771 13.703 3.73164 14.3481C3.73557 14.9932 3.95016 15.6206 4.34479 16.1407C4.73941 16.6608 5.29387 17.0471 5.929 17.2442C6.56412 17.4414 7.24743 17.4394 7.88134 17.2386C8.51525 17.0378 9.06734 16.6485 9.45878 16.1261C9.85021 15.6038 10.061 14.9751 10.061 14.33V0H13.7931C13.7905 0.304803 13.8169 0.609191 13.872 0.909316C14.0017 1.5793 14.2713 2.21665 14.6644 2.78239C15.0576 3.34813 15.5659 3.83036 16.1583 4.19959C17.0012 4.73857 17.9894 5.02585 18.9999 5.02564V8.60959Z" fill="white"/>
</svg>
